/* XPM */
static char *gcalctool[] = {
/* columns rows colors chars-per-pixel */
"32 32 79 1",
"  c black",
". c #070808",
"X c #080808",
"o c #131313",
"O c #1B1A1B",
"+ c #1F1F20",
"@ c #1F2020",
"# c #242424",
"$ c #292728",
"% c #2A2A2B",
"& c #2E2F30",
"* c #2F3030",
"= c #31312E",
"- c #313232",
"; c #373638",
": c #3A373A",
"> c #3B3B3B",
", c #3F3E40",
"< c #3F4041",
"1 c #42423E",
"2 c #434344",
"3 c #454648",
"4 c #444E44",
"5 c #49474A",
"6 c #494849",
"7 c #4B574B",
"8 c #4F5052",
"9 c #504E51",
"0 c #50504B",
"q c #535353",
"w c #565658",
"e c #565859",
"r c #5A5659",
"t c #5A5A5B",
"y c #5B5F60",
"u c #566256",
"i c #5D6B5D",
"p c #605D60",
"a c #60605A",
"s c #626162",
"d c #656669",
"f c #646B61",
"g c #686669",
"h c #686866",
"j c #6B6B6D",
"k c #6D6E70",
"l c #647364",
"z c #697066",
"x c #6A7268",
"c c #6A7A6A",
"v c #6E7072",
"b c #706F71",
"n c #70736B",
"m c #717B6E",
"M c #727474",
"N c #737778",
"B c #7B7E76",
"V c #7B7B7B",
"C c #7C8477",
"Z c #82867C",
"A c #828282",
"S c #8B8C84",
"D c #8B8B8C",
"F c #8C8F90",
"G c #8D9192",
"H c #90908F",
"J c #939393",
"K c #939798",
"L c #9B9B9B",
"P c #A0A09F",
"I c #A3A3A3",
"U c #ABABAB",
"Y c #B4B4B4",
"T c gray75",
"R c #C4C4C4",
"E c #CDCDCD",
"W c #D5D5D5",
"Q c gray86",
"! c None",
/* pixels */
"!!!!                        !!!!",
"!!!                           !!",
"!!  wQQWERRRRRRRRRRRRRRRTMoX  !!",
"!!  TTUYRJAAAAAVAAAAAAKYYK2    !",
"!!  Ushhhhhhhhhhhhhhhhhhht3    !",
"!!  L0nCxxxxxxxxxaxxfxmSn7q    !",
"!!  P1Smccccccccl4iu7ilCS0r    !",
"!!  P1SCcccccccccillillZSqr    !",
"!!  L,SSSSSSSSSSSSSSSSSSS0r    !",
"!!  F1aSSSSSSSSSSSSSSSSSq=r    !",
"!!  D.                  X-0    !",
"!!  J>676666555536663655q-#    !",
"!!  Lq*<--*-***---*%&&&&>rw    !",
"!!  KMNNvMvvvvkxjjjjjjddsp3    !",
"!!  G3$$#*t%%%#e&$%#1,:>;%t    !",
"!!  G#ALMotqPD%e$SKe%%UYI%s    !",
"!!  G@sM3ot6LP#e#gv<%%IID#s    !",
"!!  G2OOo*e#%%#r%#oo6,$$#$t    !",
"!!  Gyweteewtr9wqqwqqdbjjg2    !",
"!!  G*qe6#e<qq%w%qq1;rOOO:9    !",
"!!  F@AUqotqDD#w$ALq$%UIK%p    !",
"!!  F@uj3oe1tV$w#VK8%%IFS#p    !",
"!!  Fe%%%3d;%%;t,$%%r@IYF$p    !",
"!!  Fe%%%2w;%$-9,$%$6OUYD#p    !",
"!!  D@NVsO>qNM-5$VSp##IJA$p    !",
"!!  D@jD9o>8jS#w$MIt$$DVV$p    !",
"!!  M*--$O2&--+w#%,%;9%$$,r    !",
"!!  qwwww9qqww9956w5w9ptrr:    !",
"!!                        o.   !",
"!!                            !!",
"!!!                           !!",
"!!!!                         !!!"
};
